<svg width="467" height="320" viewBox="0 0 467 320" fill="none" xmlns="http://www.w3.org/2000/svg">
<path fill-rule="evenodd" clip-rule="evenodd" d="M86.535 99.5908C98.3725 96.3012 123.752 94.2334 130.57 112.279L79.4326 236.345C72.7559 253.131 63.5232 257.36 60.2559 258.197L99.3193 258.902C94.5843 257.962 86.5348 252.981 92.2168 240.574C97.8988 228.168 105.001 211.438 107.842 204.623H164.662C168.687 215.902 179.435 243.817 190.231 265.246C201.027 286.676 217.931 299.082 225.033 302.607C231.899 305.426 248.755 310.22 261.256 306.836C253.68 307.071 235.261 303.312 222.192 286.394C209.124 269.476 194.493 232.82 188.811 216.607L159.69 135.542C156.139 124.733 144.917 101.283 128.439 93.9514C111.962 86.6203 93.6374 94.6564 86.535 99.5908ZM163.667 198.147L138.81 124.836L109.688 198.147H163.667Z" fill="white"/>
<path d="M232.513 38.2773C223.078 10.447 195.744 2.56174 183.256 2.0979C188.806 0.242548 203.098 -2.07665 215.863 3.48942C228.628 9.05549 240.607 24.3622 245.001 31.3198L299.256 148.066L360.256 13.184L365.717 43.8434L383.755 157.252C383.755 158.644 385.941 171.896 389.256 180.908C395.432 197.7 411.756 207.901 419.256 209.929L432.756 214.5L415.756 213.479C409.512 213.015 396.755 209.929 383.755 198.267C373.327 188.912 367.908 166.462 366.256 157.252L352.535 57.0628L297.727 180.908L242.226 61.2374C238.988 88.8358 232.513 147.233 232.513 160.035C232.513 172.837 238.988 176.501 242.226 176.733H198.098C197.391 176.792 196.832 176.783 196.437 176.733H198.098C200.71 176.516 205.328 175.367 211.007 171.863C218.222 167.41 220.026 156.556 220.026 151.686L232.513 38.2773Z" fill="white"/>
<path d="M136.258 74.584C136.258 80.383 131.557 85.084 125.758 85.084C119.959 85.084 115.258 80.383 115.258 74.584C115.258 68.785 119.959 64.084 125.758 64.084C131.557 64.084 136.258 68.785 136.258 74.584Z" fill="white"/>
<path d="M464.5 151.5L465.476 151.717L464.5 151.5ZM414 85.084L414.081 84.0872L414 85.084ZM294.257 195L293.427 194.442L294.257 195ZM151.968 316L152.213 316.97L151.968 316ZM4.75553 224L5.72991 223.775L4.75553 224ZM46.2567 94.4999L46.9289 95.2403L46.2567 94.4999ZM379.256 213.5C389.417 213.5 408.248 210.098 425.885 200.713C443.541 191.319 460.11 175.865 465.476 151.717L463.524 151.283C458.324 174.684 442.27 189.73 424.946 198.948C407.603 208.176 389.095 211.5 379.256 211.5V213.5ZM465.476 151.717C468.038 140.189 465.599 124.155 457.355 110.582C449.085 96.9687 434.941 85.7788 414.081 84.0872L413.919 86.0807C434.059 87.7139 447.665 98.482 455.645 111.62C463.651 124.8 465.962 140.311 463.524 151.283L465.476 151.717ZM414.081 84.0872C388.512 82.0139 369.297 93.3447 351.03 113.274C332.814 133.149 315.382 161.758 293.427 194.442L295.087 195.558C317.131 162.742 334.423 134.353 352.504 114.626C370.536 94.9528 389.192 84.0756 413.919 86.0807L414.081 84.0872ZM293.427 194.442C267.536 232.986 246.846 259.393 225.266 278.037C203.716 296.656 181.24 307.563 151.722 315.031L152.213 316.97C181.985 309.437 204.753 298.403 226.574 279.551C248.366 260.724 269.176 234.131 295.087 195.558L293.427 194.442ZM151.722 315.031C131.449 320.16 99.8695 318.802 70.8884 305.407C41.9514 292.032 15.6307 266.671 5.72991 223.775L3.78115 224.225C13.8373 267.794 40.6205 293.62 70.0493 307.222C99.434 320.804 131.482 322.214 152.213 316.97L151.722 315.031ZM5.72991 223.775C-7.67033 165.718 17.128 122.298 46.9289 95.2403L45.5845 93.7596C15.3997 121.166 -9.82342 165.282 3.78115 224.225L5.72991 223.775ZM46.9289 95.2403C80.1351 65.0911 123.758 65.2788 125.853 65.0795L125.664 63.0885C123.759 63.2697 79.3782 63.0769 45.5845 93.7596L46.9289 95.2403ZM135.258 74.584C135.258 79.8307 131.005 84.084 125.758 84.084V86.084C132.11 86.084 137.258 80.9353 137.258 74.584H135.258ZM125.758 84.084C120.512 84.084 116.258 79.8307 116.258 74.584H114.258C114.258 80.9352 119.407 86.084 125.758 86.084V84.084ZM116.258 74.584C116.258 69.3373 120.512 65.084 125.758 65.084V63.084C119.407 63.084 114.258 68.2327 114.258 74.584H116.258ZM125.758 65.084C131.005 65.084 135.258 69.3373 135.258 74.584H137.258C137.258 68.2327 132.11 63.084 125.758 63.084V65.084Z" fill="white"/>
<circle cx="125.756" cy="75.5" r="12.5" fill="white"/>
</svg>
